HIERARCHY
ROOT hip
{
  OFFSET 0 0 0
  CHANNELS 6 Xposition Yposition Zposition Zrotation Yrotation Xrotation
  JOINT abdomen
  {
    OFFSET 0 20.6881 -0.73152
    CHANNELS 3 Zrotation Xrotation Yrotation
    JOINT chest
    {
      OFFSET 0 11.7043 -0.48768
      CHANNELS 3 Zrotation Xrotation Yrotation
      JOINT neck
      {
        OFFSET 0 22.1894 -2.19456
        CHANNELS 3 Zrotation Xrotation Yrotation
        JOINT head
        {
          OFFSET -0.24384 7.07133 1.2192
          CHANNELS 3 Zrotation Xrotation Yrotation
          JOINT leftEye
          {
            OFFSET 4.14528 8.04674 8.04672
            CHANNELS 3 Zrotation Xrotation Yrotation
            End Site
            {
              OFFSET 1 0 0
            }
          }
          JOINT rightEye
          {
            OFFSET -3.6576 8.04674 8.04672
            CHANNELS 3 Zrotation Xrotation Yrotation
            End Site
            {
              OFFSET 1 0 0
            }
          }
        }
      }
      JOINT rCollar
      {
        OFFSET -2.68224 19.2634 -4.8768
        CHANNELS 3 Zrotation Xrotation Yrotation
        JOINT rShldr
        {
          OFFSET -8.77824 -1.95073 1.46304
          CHANNELS 3 Zrotation Xrotation Yrotation
          JOINT rForeArm
          {
            OFFSET -28.1742 -1.7115 0.48768
            CHANNELS 3 Zrotation Xrotation Yrotation
            JOINT rHand
            {
              OFFSET -22.5879 0.773209 7.07136
              CHANNELS 3 Zrotation Xrotation Yrotation
              JOINT rThumb1
              {
                OFFSET -1.2192 -0.487915 3.41376
                CHANNELS 3 Zrotation Xrotation Yrotation
                JOINT rThumb2
                {
                  OFFSET -3.37035 -0.52449 3.41376
                  CHANNELS 3 Zrotation Xrotation Yrotation
                  End Site
                  {
                    OFFSET -1.78271 -1.18214 1.43049
                  }
                }
              }
              JOINT rIndex1
              {
                OFFSET -7.75947 0.938293 5.60832
                CHANNELS 3 Zrotation Xrotation Yrotation
                JOINT rIndex2
                {
                  OFFSET -2.54057 -0.884171 1.56538
                  CHANNELS 3 Zrotation Xrotation Yrotation
                  End Site
                  {
                    OFFSET -1.62519 -0.234802 1.16502
                  }
                }
              }
              JOINT rMid1
              {
                OFFSET -8.24714 1.18213 3.41376
                CHANNELS 3 Zrotation Xrotation Yrotation
                JOINT rMid2
                {
                  OFFSET -3.10165 -0.590103 1.0647
                  CHANNELS 3 Zrotation Xrotation Yrotation
                  End Site
                  {
                    OFFSET -2.48547 -0.328903 0.83742
                  }
                }
              }
              JOINT rRing1
              {
                OFFSET -8.82822 0.546677 1.51678
                CHANNELS 3 Zrotation Xrotation Yrotation
                JOINT rRing2
                {
                  OFFSET -2.60934 -0.819778 -0.0198488
                  CHANNELS 3 Zrotation Xrotation Yrotation
                  End Site
                  {
                    OFFSET -2.33842 -0.294052 0.168128
                  }
                }
              }
              JOINT rPinky1
              {
                OFFSET -8.27202 -0.0477905 -0.4584
                CHANNELS 3 Zrotation Xrotation Yrotation
                JOINT rPinky2
                {
                  OFFSET -1.82734 -0.647385 -0.700984
                  CHANNELS 3 Zrotation Xrotation Yrotation
                  End Site
                  {
                    OFFSET -1.69225 -0.51767 -0.607171
                  }
                }
              }
            }
          }
        }
      }
      JOINT lCollar
      {
        OFFSET 2.68224 19.2634 -4.8768
        CHANNELS 3 Zrotation Xrotation Yrotation
        JOINT lShldr
        {
          OFFSET 8.77824 -1.95073 1.46304
          CHANNELS 3 Zrotation Xrotation Yrotation
          JOINT lForeArm
          {
            OFFSET 28.1742 -1.7115 0.48768
            CHANNELS 3 Zrotation Xrotation Yrotation
            JOINT lHand
            {
              OFFSET 22.5879 0.773209 7.07136
              CHANNELS 3 Zrotation Xrotation Yrotation
              JOINT lThumb1
              {
                OFFSET 1.2192 -0.487915 3.41376
                CHANNELS 3 Zrotation Xrotation Yrotation
                JOINT lThumb2
                {
                  OFFSET 3.37035 -0.52449 3.41376
                  CHANNELS 3 Zrotation Xrotation Yrotation
                  End Site
                  {
                    OFFSET 1.78271 -1.18214 1.43049
                  }
                }
              }
              JOINT lIndex1
              {
                OFFSET 7.75947 0.938293 5.60832
                CHANNELS 3 Zrotation Xrotation Yrotation
                JOINT lIndex2
                {
                  OFFSET 2.54057 -0.884171 1.56538
                  CHANNELS 3 Zrotation Xrotation Yrotation
                  End Site
                  {
                    OFFSET 1.62519 -0.234802 1.16502
                  }
                }
              }
              JOINT lMid1
              {
                OFFSET 8.24714 1.18213 3.41376
                CHANNELS 3 Zrotation Xrotation Yrotation
                JOINT lMid2
                {
                  OFFSET 3.10165 -0.590103 1.0647
                  CHANNELS 3 Zrotation Xrotation Yrotation
                  End Site
                  {
                    OFFSET 2.48547 -0.328903 0.83742
                  }
                }
              }
              JOINT lRing1
              {
                OFFSET 8.82822 0.546677 1.51678
                CHANNELS 3 Zrotation Xrotation Yrotation
                JOINT lRing2
                {
                  OFFSET 2.60934 -0.819778 -0.0198488
                  CHANNELS 3 Zrotation Xrotation Yrotation
                  End Site
                  {
                    OFFSET 2.33842 -0.294052 0.168128
                  }
                }
              }
              JOINT lPinky1
              {
                OFFSET 8.27202 -0.0477905 -0.4584
                CHANNELS 3 Zrotation Xrotation Yrotation
                JOINT lPinky2
                {
                  OFFSET 1.82734 -0.647385 -0.700984
                  CHANNELS 3 Zrotation Xrotation Yrotation
                  End Site
                  {
                    OFFSET 1.69225 -0.51767 -0.607171
                  }
                }
              }
            }
          }
        }
      }
    }
  }
  JOINT rButtock
  {
    OFFSET -8.77824 4.35084 1.2192
    CHANNELS 3 Zrotation Xrotation Yrotation
    JOINT rThigh
    {
      OFFSET 0 -1.70687 -2.19456
      CHANNELS 3 Zrotation Xrotation Yrotation
      JOINT rShin
      {
        OFFSET 0 -36.8199 0.73152
        CHANNELS 3 Zrotation Xrotation Yrotation
        JOINT rFoot
        {
          OFFSET 0.73152 -45.1104 -5.12064
          CHANNELS 3 Zrotation Xrotation Yrotation
          End Site
          {
            OFFSET -1.1221 -3.69964 12.103
          }
        }
      }
    }
  }
  JOINT lButtock
  {
    OFFSET 8.77824 4.35084 1.2192
    CHANNELS 3 Zrotation Xrotation Yrotation
    JOINT lThigh
    {
      OFFSET 0 -1.70687 -2.19456
      CHANNELS 3 Zrotation Xrotation Yrotation
      JOINT lShin
      {
        OFFSET 0 -36.8199 0.73152
        CHANNELS 3 Zrotation Xrotation Yrotation
        JOINT lFoot
        {
          OFFSET -0.73152 -45.1104 -5.12064
          CHANNELS 3 Zrotation Xrotation Yrotation
          End Site
          {
            OFFSET 1.1221 -3.69964 12.103
          }
        }
      }
    }
  }
}
MOTION
Frames:	4
Frame Time:	0.00833333
-51.6649 84.0246 -31.2604 -198.416 103.131 -181.382 -5.39533 18.3221 5.74601 -0.776586 -4.21677 1.36787 3.79687 1.17611 3.57909 -8.28233 28.2375 11.5115 -0.0 0.0 0.0 -0.0 0.0 0.0 4.50408e-14 -1.07166e-12 -9.63787e-14 53.8261 58.9362 25.9081 -26.706 -25.4016 59.9064 0.000255704 0.985237 0.13848 1.37376e-10 -1.00101e-09 -1.91062e-09 2.36469e-10 -1.73032e-09 -3.30445e-09 1.3738e-10 -1.00101e-09 -1.91061e-09 7.73091 5.47488 0.417314 1.37378e-10 -1.00101e-09 -1.91061e-09 2.90554 0.965183 0.102902 1.37383e-10 -1.00101e-09 -1.91061e-09 10.2786 0.731801 0.0259123 1.3737e-10 -1.00101e-09 -1.91061e-09 2.22167 -0.733487 -0.20892 4.48252e-14 -1.07165e-12 -9.67146e-14 -34.5044 36.5037 -54.0766 19.452 -12.3378 -37.3653 0.259713 14.3553 -2.06128 -1.46075e-09 -2.53781e-09 3.29683e-10 -2.52172e-09 -4.39746e-09 5.90926e-10 -1.46075e-09 -2.53781e-09 3.29686e-10 -7.73091 5.47488 -0.417314 -1.46075e-09 -2.53781e-09 3.29677e-10 -2.90554 0.965183 -0.102902 -1.46076e-09 -2.53781e-09 3.29681e-10 -10.2786 0.731801 -0.0259123 -1.46075e-09 -2.53781e-09 3.29675e-10 -2.22167 -0.733487 0.20892 -2.03217e-16 0.0 -3.88251e-19 -1.26538 -27.1322 7.52871 0.000175218 9.319 0.173007 -0.277506 2.71226 -8.58766 2.03217e-16 0.0 3.88251e-19 10.6187 -34.0837 -2.50813 0.166833 24.578 -0.322998 3.8599 -8.10541 12.9941
-51.7071 84.0291 -31.2213 -198.267 103.495 -181.188 -5.47087 18.2758 5.9405 -0.791833 -4.2107 1.41858 3.86567 1.10647 3.56518 -8.29971 28.4108 11.502 -0.0 0.0 0.0 -0.0 0.0 0.0 8.11625e-14 -1.34348e-12 -8.1421e-14 53.3767 58.5287 26.511 -26.5062 -24.8092 58.9438 0.0022606 0.0577925 0.00812972 -2.19575e-10 -4.25328e-10 -8.4971e-10 -3.79443e-10 -7.36661e-10 -1.47259e-09 -2.19574e-10 -4.25326e-10 -8.49709e-10 7.73091 5.47488 0.417314 -2.19575e-10 -4.25328e-10 -8.49705e-10 2.90554 0.965183 0.102902 -2.19568e-10 -4.25328e-10 -8.49704e-10 10.2786 0.731801 0.0259123 -2.19581e-10 -4.25325e-10 -8.49701e-10 2.22167 -0.733487 -0.20892 8.09517e-14 -1.34347e-12 -8.17284e-14 -34.0116 36.6543 -54.4222 19.4115 -12.2892 -37.2692 0.262774 14.438 -2.07367 -9.8699e-10 -1.7054e-09 1.00371e-10 -1.70512e-09 -2.95644e-09 1.87363e-10 -9.8699e-10 -1.7054e-09 1.00375e-10 -7.73091 5.47488 -0.417314 -9.86989e-10 -1.7054e-09 1.00361e-10 -2.90554 0.965183 -0.102902 -9.86996e-10 -1.7054e-09 1.00367e-10 -10.2786 0.731801 -0.0259123 -9.86988e-10 -1.70539e-09 1.00361e-10 -2.22167 -0.733487 0.20892 -2.03217e-16 0.0 -3.88251e-19 -1.17669 -27.1178 7.70082 -0.00306412 9.22895 0.171668 -0.265657 2.75807 -8.574 2.03217e-16 0.0 3.88251e-19 10.7191 -34.0539 -2.40221 0.165638 24.5788 -0.322862 3.88225 -8.09897 13.081
-51.7433 84.0327 -31.195 -198.326 103.69 -181.195 -5.53074 18.2283 6.12303 -0.808523 -4.1931 1.46666 3.92764 1.03899 3.55675 -8.31742 28.5725 11.5029 -0.0 0.0 0.0 -0.0 0.0 0.0 1.15316e-13 -1.63274e-12 -7.49643e-14 52.9088 58.1902 27.0569 -26.3324 -24.3192 58.1739 0.000711579 -0.841038 -0.118199 -6.17922e-10 2.71777e-10 4.18301e-10 -1.06741e-09 4.67162e-10 7.17431e-10 -6.17924e-10 2.71783e-10 4.18295e-10 7.73091 5.47488 0.417314 -6.17922e-10 2.71781e-10 4.18303e-10 2.90554 0.965183 0.102902 -6.17915e-10 2.71781e-10 4.18303e-10 10.2786 0.731801 0.0259123 -6.17927e-10 2.71784e-10 4.18307e-10 2.22167 -0.733487 -0.20892 1.1512e-13 -1.63275e-12 -7.52388e-14 -33.5511 36.7863 -54.7494 19.372 -12.2419 -37.176 0.266657 14.5428 -2.08938 -3.51434e-10 -6.85239e-10 -8.35234e-11 -6.08225e-10 -1.18931e-09 -1.39826e-10 -3.51433e-10 -6.85241e-10 -8.35178e-11 -7.73091 5.47488 -0.417314 -3.51433e-10 -6.8524e-10 -8.35356e-11 -2.90554 0.965183 -0.102902 -3.51436e-10 -6.85238e-10 -8.35283e-11 -10.2786 0.731801 -0.0259123 -3.5143e-10 -6.85234e-10 -8.3535e-11 -2.22167 -0.733487 0.20892 -2.03217e-16 0.0 -3.88251e-19 -1.08925 -27.1022 7.85965 -0.00583411 9.12881 0.170365 -0.252197 2.81131 -8.55657 2.03217e-16 0.0 3.88251e-19 10.8132 -34.0321 -2.32522 0.164572 24.5785 -0.32279 3.9082 -8.09343 13.1812
-51.7585 84.034 -31.1894 -198.405 103.695 -181.251 -5.56805 18.1994 6.22398 -0.807819 -4.16394 1.4938 3.95607 1.01215 3.55786 -8.33007 28.6512 11.5164 -0.0 0.0 0.0 -0.0 0.0 0.0 1.38442e-13 -1.95236e-12 -9.52676e-14 52.4444 58.0593 27.4467 -26.2552 -24.1078 57.8508 -0.00289556 -1.5363 -0.215965 -1.01295e-09 9.6936e-10 1.61938e-09 -1.75096e-09 1.67286e-09 2.79287e-09 -1.01296e-09 9.69369e-10 1.61937e-09 7.73091 5.47488 0.417314 -1.01295e-09 9.69366e-10 1.61938e-09 2.90554 0.965183 0.102902 -1.01294e-09 9.69366e-10 1.61938e-09 10.2786 0.731801 0.0259123 -1.01296e-09 9.69368e-10 1.61938e-09 2.22167 -0.733487 -0.20892 1.38276e-13 -1.95237e-12 -9.5516e-14 -33.2004 36.865 -54.9969 19.3419 -12.2059 -37.1053 0.267968 14.5784 -2.09472 2.75465e-10 1.26806e-10 -5.4044e-11 4.76172e-10 2.19156e-10 -9.74506e-11 2.75467e-10 1.26802e-10 -5.40376e-11 -7.73091 5.47488 -0.417314 2.75466e-10 1.26804e-10 -5.40567e-11 -2.90554 0.965183 -0.102902 2.75466e-10 1.26805e-10 -5.40495e-11 -10.2786 0.731801 -0.0259123 2.75471e-10 1.2681e-10 -5.40567e-11 -2.22167 -0.733487 0.20892 -2.03217e-16 0.0 -3.88251e-19 -1.04038 -27.1136 7.9485 -0.00670065 9.0958 0.169724 -0.247024 2.83482 -8.54974 2.03217e-16 0.0 3.88251e-19 10.8506 -34.0236 -2.33027 0.164027 24.5724 -0.322879 3.92979 -8.08238 13.2733
